<svg width="21" height="22" viewBox="0 0 21 22" fill="none" xmlns="http://www.w3.org/2000/svg">
<path d="M9 6H4.5C2.84315 6 1.5 7.34315 1.5 9L0 10.5V9C0 6.51472 2.01472 4.5 4.5 4.5H9V6ZM9 10.5H0L1.5 9H9V10.5Z" fill="#2F24B5"/>
<path d="M7.5 9H13.5V10.5H9V15H7.5V9Z" fill="#2F24B5"/>
<path d="M9 15V17.25C9 18.9069 10.3431 20.25 12 20.25L13.5 21.75H12C9.51472 21.75 7.5 19.7353 7.5 17.25V15H9ZM13.5 15V21.75L12 20.25V15H13.5Z" fill="#2F24B5"/>
<path d="M12 10.5H16.5C18.1569 10.5 19.5 11.8431 19.5 13.5L21 15V13.5C21 11.0147 18.9853 9 16.5 9H12V10.5ZM12 15H21L19.5 13.5H12V15Z" fill="#2F24B5"/>
<path d="M12 4.5H16.5C18.1569 4.5 19.5 3.15685 19.5 1.5L21 0V1.5C21 3.98528 18.9853 6 16.5 6H12V4.5ZM12 0H21L19.5 1.5H12V0Z" fill="#2F24B5"/>
<path d="M16.5 1.5H12C10.3431 1.5 9 2.84315 9 4.5L7.5 6V4.5C7.5 2.01472 9.51472 0 12 0H16.5V1.5ZM16.5 6H7.5L9 4.5H16.5V6Z" fill="#2F24B5"/>
</svg>
